# xmcd
#
# Track frame offsets:
#	150
#	10025
#	24272
#	39607
#	49601
#	59050
#	68927
#	80002
#	92013
#
# Disc length: 1473 seconds
#
# Revision: 0
# Processed by: cddbd v1.5.2PL0 Copyright (c) Steve Scherf et al.
# Submitted via: EZCDAudioConverter 5.1.0.1
#
DISCID=6e05bf09
DTITLE=Mr.Songman - Mr.Songman 1st Promo CD
DYEAR=2017
DGENRE=Blues/Rock
TTITLE0=Mr.Songman
TTITLE1=Blame it on me
TTITLE2=One
TTITLE3=Is this the world that we created
TTITLE4=Blue Suede shoes
TTITLE5=I gotta know
TTITLE6=Memphis Tennesse
TTITLE7=There must be more to live than this
TTITLE8=Halleluja
EXTD=
EXTT0=
EXTT1=
EXTT2=
EXTT3=
EXTT4=
EXTT5=
EXTT6=
EXTT7=
EXTT8=
PLAYORDER=
